<svg xmlns="http://www.w3.org/2000/svg" width="118" viewBox="0 0 118 36" class="w-32 sm:w-auto h-auto sm:h-10 border border-white rounded-lg text-white"><g fill="none" fill-rule="evenodd"><g><g><g><path fill="#FFFFFE" d="M50.841 18.124c.515 0 .991.13 1.43.39.438.26.792.67 1.061 1.23.27.56.404 1.27.404 2.133 0 .9-.154 1.67-.461 2.309-.307.638-.738 1.122-1.29 1.45-.553.33-1.192.494-1.916.494-.524 0-1.041-.088-1.551-.264v3.187l-1.766.15v-9.049c0-.572-.019-1.2-.057-1.887h1.659c.062.32.105.646.128.98.686-.749 1.473-1.123 2.36-1.123zm53.206.08l1.43 4.346c.232.744.383 1.313.45 1.708.134-.557.29-1.115.471-1.672l1.452-4.382h1.778l-2.835 7.813c-.267.738-.558 1.334-.867 1.787-.31.452-.675.788-1.096 1.008-.422.219-.93.328-1.527.328-.295 0-.572-.022-.829-.068-.257-.045-.47-.096-.635-.153l.321-1.287c.118.033.27.066.451.097.18.03.352.046.515.046.781 0 1.367-.503 1.756-1.508l.116-.286-2.845-7.777h1.894zm-45.161-.143c.514 0 .99.13 1.43.39.438.26.791.67 1.06 1.23.27.56.405 1.27.405 2.133 0 .9-.154 1.67-.462 2.309-.307.638-.737 1.122-1.29 1.45-.553.33-1.191.494-1.915.494-.525 0-1.042-.088-1.551-.265v3.188l-1.766.15v-9.049c0-.572-.02-1.2-.057-1.887h1.658c.062.32.105.646.129.98.686-.749 1.472-1.123 2.359-1.123zm9.133-2.638c.595 0 1.164.066 1.705.197.54.131 1.044.311 1.511.54l-.45 1.358c-.939-.448-1.835-.672-2.687-.672-.72 0-1.35.154-1.891.461-.541.308-.962.759-1.262 1.355-.3.595-.45 1.315-.45 2.158 0 .74.115 1.394.346 1.966.232.572.596 1.025 1.094 1.358.498.334 1.126.5 1.884.5.343 0 .686-.028 1.029-.085.343-.058.665-.14.965-.25v-2.095h-2.395v-1.372h4.11v4.36c-.59.276-1.211.489-1.862.636-.65.148-1.297.222-1.94.222-1.04 0-1.94-.211-2.702-.633-.763-.421-1.349-1.026-1.758-1.812-.41-.786-.615-1.715-.615-2.788 0-1.162.236-2.15.707-2.963.472-.812 1.114-1.422 1.926-1.83.813-.407 1.724-.61 2.735-.61zm8.196 2.638c.668 0 1.235.101 1.702.304.467.203.831.55 1.093 1.043.262.494.393 1.158.393 1.991v3.067c0 .32.02.803.058 1.45h-1.659c-.062-.3-.102-.64-.121-1.021-.272.324-.625.599-1.062.825-.435.226-.928.34-1.476.34-.443 0-.847-.087-1.211-.261-.365-.174-.654-.436-.869-.787-.214-.35-.321-.777-.321-1.283 0-.748.269-1.344.807-1.79.539-.446 1.437-.668 2.695-.668.472 0 .939.033 1.401.1v-.15c0-.682-.145-1.162-.436-1.44-.29-.28-.708-.419-1.25-.419-.377 0-.78.055-1.209.164-.429.11-.805.241-1.13.394l-.278-1.287c.315-.143.73-.274 1.244-.393.515-.12 1.058-.179 1.63-.179zm6.301-3.252v8.942c0 .329.056.56.168.697.112.135.29.204.533.204.11 0 .264-.027.464-.079l.208 1.265c-.167.067-.37.12-.611.16-.241.041-.469.062-.683.062-1.225 0-1.837-.665-1.837-1.995v-9.113l1.758-.143zm9.734 3.252c.73 0 1.337.17 1.826.511.488.341.85.795 1.086 1.362.236.567.354 1.194.354 1.88v.472H90.47c.08 1.615.85 2.423 2.31 2.423.36 0 .731-.044 1.111-.132.378-.089.742-.207 1.089-.354l.387 1.208c-.864.42-1.832.629-2.909.629-.821 0-1.51-.155-2.073-.465-.564-.31-.987-.755-1.27-1.337-.283-.58-.425-1.281-.425-2.101 0-.853.15-1.587.45-2.202.3-.614.719-1.084 1.255-1.408.536-.324 1.154-.486 1.856-.486zm-5.338-3.252v8.942c0 .329.056.56.168.697.112.135.29.204.533.204.11 0 .264-.027.464-.079l.208 1.265c-.167.067-.37.12-.611.16-.241.041-.469.062-.683.062-1.225 0-1.837-.665-1.837-1.995v-9.113l1.758-.143zm-45.057.75l4.153 10.358h-1.916l-1.036-2.774H38.91l-1.015 2.774h-1.823l4.06-10.358h1.723zm58.929 2.502c.271 0 .502.029.698.086l-.222 1.53c-.17-.053-.36-.08-.57-.08-.414 0-.778.107-1.087.32-.31.211-.64.56-.994 1.046v4.954h-1.757V20.14c0-.424-.02-1.07-.059-1.937h1.653c.028.215.054.47.083.769.026.297.042.54.052.725.205-.338.406-.623.604-.854.198-.231.43-.42.694-.565.265-.145.565-.218.905-.218zm-50.486 1.457c-.343 0-.66.081-.95.243-.292.162-.568.379-.83.65v4.132c.176.086.381.154.615.204.233.05.464.075.693.075.686 0 1.21-.242 1.569-.726.36-.483.54-1.19.54-2.119 0-.863-.15-1.488-.447-1.877-.298-.388-.695-.582-1.19-.582zm8.044-.063c-.343 0-.66.081-.95.243-.291.162-.567.379-.83.65v4.132c.177.086.382.154.615.204.234.05.465.075.694.075.686 0 1.209-.242 1.569-.726.36-.483.54-1.19.54-2.12 0-.862-.15-1.487-.447-1.876-.298-.388-.695-.582-1.19-.582zm18.124 2.866c-.73 0-1.233.118-1.512.354-.279.236-.418.554-.418.954 0 .382.101.664.304.847.202.184.477.276.825.276.353 0 .712-.089 1.08-.265.366-.176.667-.395.9-.657V22.4c-.481-.052-.874-.079-1.18-.079zm-35.498-4.91c-.133.438-.279.886-.436 1.344l-1.1 2.98h3.095l-1.108-2.966c-.153-.41-.303-.863-.45-1.358zm51.254 1.908c-.448 0-.822.155-1.119.465-.297.31-.493.77-.583 1.38h3.275c-.036-.615-.19-1.076-.465-1.384-.277-.307-.647-.46-1.108-.46zM36.064 5.7L39.211 5.7 39.123 6.46 36.987 6.46 36.987 7.932 39.001 7.932 39.001 8.644 36.987 8.644 36.987 10.274 39.237 10.274 39.16 11.042 36.064 11.042 36.064 5.7M41.38 8.315L39.72 5.7 40.768 5.7 41.893 7.622 43.078 5.7 44.096 5.7 42.45 8.282 44.232 11.042 43.17 11.042 41.897 8.939 40.602 11.042 39.584 11.042 41.38 8.315M47.224 8.085c.197-.178.295-.43.295-.755 0-.33-.1-.566-.3-.712-.2-.145-.495-.217-.884-.217h-.502v1.896c.232.037.409.055.532.055.376 0 .662-.089.86-.267zM44.911 5.7h1.439c.676 0 1.194.138 1.553.413.36.275.538.674.538 1.195 0 .354-.08.664-.241.928-.161.264-.386.468-.673.609-.288.141-.619.212-.993.212-.204 0-.438-.025-.7-.074v2.059h-.923V5.7zM49.353 5.7L50.275 5.7 50.275 10.252 52.485 10.252 52.407 11.042 49.353 11.042 49.353 5.7M56.278 10.125c.258-.173.45-.412.579-.716.128-.303.192-.65.192-1.042 0-.384-.057-.726-.17-1.026-.113-.3-.294-.539-.542-.717-.249-.178-.569-.268-.96-.268-.373 0-.69.09-.952.272-.26.18-.456.423-.586.726-.13.304-.195.64-.195 1.006 0 .386.06.731.184 1.036.123.305.31.546.564.723.254.178.567.266.941.266.372 0 .686-.087.945-.26zm-2.391.655c-.391-.224-.69-.538-.897-.943-.206-.404-.31-.875-.31-1.41 0-.564.11-1.057.33-1.478.22-.422.538-.748.952-.978.415-.23.904-.345 1.467-.345.539 0 1.002.111 1.39.334.39.223.686.535.89.939.204.403.306.87.306 1.401 0 .574-.111 1.072-.334 1.495-.222.423-.54.749-.952.977-.412.23-.895.343-1.451.343-.536 0-1-.111-1.391-.335zM60.49 8.227c.224 0 .422-.044.595-.131.172-.087.306-.21.402-.369.096-.159.144-.342.144-.552 0-.268-.085-.464-.255-.588-.17-.124-.417-.186-.741-.186h-.668v1.826h.524zM59.046 5.7h1.67c.61 0 1.072.121 1.386.365.314.243.47.592.47 1.044 0 .283-.056.532-.17.747-.113.215-.253.39-.42.526-.167.135-.34.236-.516.302l1.641 2.358h-1.07l-1.39-2.118h-.68v2.118h-.921V5.7zM63.837 5.7L66.984 5.7 66.895 6.46 64.759 6.46 64.759 7.932 66.773 7.932 66.773 8.644 64.759 8.644 64.759 10.274 67.01 10.274 66.932 11.042 63.837 11.042 63.837 5.7M70.407 11.042L71.33 11.042 71.33 5.7 70.407 5.7zM73.768 6.471L72.112 6.471 72.193 5.7 76.351 5.7 76.266 6.471 74.69 6.471 74.69 11.042 73.768 11.042 73.768 6.471M82.744 10.125c.258-.173.451-.412.58-.716.127-.303.191-.65.191-1.042 0-.384-.057-.726-.17-1.026-.113-.3-.294-.539-.542-.717-.248-.178-.568-.268-.96-.268-.373 0-.69.09-.95.272-.262.18-.457.423-.587.726-.13.304-.196.64-.196 1.006 0 .386.061.731.185 1.036.122.305.31.546.564.723.253.178.567.266.94.266.372 0 .687-.087.945-.26zm-2.39.655c-.392-.224-.69-.538-.897-.943-.207-.404-.31-.875-.31-1.41 0-.564.11-1.057.33-1.478.22-.422.538-.748.952-.978.415-.23.903-.345 1.467-.345.538 0 1.002.111 1.39.334.389.223.685.535.89.939.203.403.306.87.306 1.401 0 .574-.112 1.072-.334 1.495-.223.423-.54.749-.952.977-.412.23-.896.343-1.452.343-.536 0-1-.111-1.39-.335zM85.51 5.7h1.06l2.642 4.139c-.024-.393-.033-.756-.033-1.088V5.7h.854v5.342H89.01l-2.683-4.206c.027.477.04.9.04 1.269v2.937h-.855V5.7" transform="translate(-566 -4184) translate(-120 3687) translate(687 498)"></path> <path fill="#B52532" d="M23.092 5.728h-9.81c-4.62 0-6.31 1.69-6.31 6.311v9.81c0 4.62 1.69 6.31 6.31 6.31h9.807c4.62 0 6.313-1.69 6.313-6.31v-9.81c0-4.62-1.69-6.31-6.31-6.31" transform="translate(-566 -4184) translate(-120 3687) translate(687 498)"></path> <path fill="#FFFFFE" d="M16.758 18.737h.9l-.452-1.05-.448 1.05zm-.222.529l-.267.61h-.607l1.292-2.93h.525l1.287 2.93h-.624l-.264-.61h-1.342zm9.776.608h.587v-2.929h-.587v2.93zm-2.337-1.258h1.082v-.534h-1.082v-.6h1.571v-.535h-2.158v2.93h2.215v-.535h-1.628v-.726zm-2.333.346l-.666-2.017h-.485l-.666 2.017-.648-2.015h-.633l1.022 2.931h.493l.666-1.926.667 1.926h.497l1.02-2.931h-.618l-.649 2.015zm-6.876-.338c0 .477-.237.732-.667.732-.432 0-.67-.262-.67-.752v-1.657h-.595v1.677c0 .825.458 1.298 1.257 1.298.807 0 1.27-.482 1.27-1.322v-1.655h-.595v1.679zm-3.352-1.679h.595v2.933h-.595v-1.19H10.07v1.19h-.595v-2.933h.595v1.184h1.344v-1.184zM18.187 13.212c-2.058 0-3.733-1.675-3.733-3.734h.527c0 1.768 1.438 3.206 3.206 3.206s3.206-1.438 3.206-3.206h.528c0 2.059-1.675 3.734-3.734 3.734" transform="translate(-566 -4184) translate(-120 3687) translate(687 498)"></path></g></g></g></g></svg>
