<svg xmlns="http://www.w3.org/2000/svg" viewBox="0 0 228 24" class="fill-current max-w-full h-5 xl:h-6 mx-auto" data-v-3db251ad=""><g fill="none" fill-rule="evenodd"><g fill="#000" fill-rule="nonzero"><g><g><path d="M15.493 0L15.493 9.427 4.814 9.427 4.814 0 0 0 0 24 4.814 24 4.814 13.925 15.493 13.925 15.493 24 20.341 24 20.341 0zM33.979 0L33.979 24 49.8 24 49.8 19.574 38.739 19.574 38.739 13.997 49.565 13.997 49.565 9.607 38.739 9.607 38.739 4.39 49.8 4.39 49.8 0zM63.438 0L63.438 24 76.999 24 76.999 19.502 67.979 19.502 67.979 0zM117.292 24L121.812 24 121.812 0 117.292 0zM97.83 19.646c1.756 0 2.797-1.115 2.797-2.842 0-1.512-.976-2.807-2.797-2.807h-5.951v5.649h5.95zm-.163-10.003c1.561 0 2.537-1.115 2.537-2.663 0-1.475-.976-2.626-2.537-2.626H91.88v5.29h5.788zM87.261 0h11.414c4.13 0 6.244 2.914 6.244 6.117 0 3.022-1.691 5.037-3.74 5.505 2.31.396 4.163 2.879 4.163 5.901 0 3.598-2.18 6.477-6.309 6.477H87.261V0zM135.451 19.862L147.184 4.21 135.451 4.21 135.451 0 153.531 0 153.531 3.375 141.072 19.862 153.531 19.862 153.531 24 135.451 24z" transform="translate(-271 -848) translate(271 848)"></path></g> <path d="M185.728 24c3.644 0 6.732-1.563 8.78-3.855v-8.093h-10.723v1.771h8.744v5.558c-1.284 1.285-3.713 2.813-6.8 2.813-5.448 0-9.647-4.237-9.647-10.211 0-6.044 4.199-10.177 9.646-10.177 2.95 0 5.587 1.285 7.218 3.23l1.492-1.077C192.32 1.53 189.545 0 185.728 0 179.24 0 174 4.828 174 11.983 174 19.137 179.24 24 185.728 24zm30.63-.035c6.766 0 11.242-5.21 11.242-11.982C227.6 5.21 223.124 0 216.358 0c-6.801 0-11.243 5.21-11.243 11.983 0 6.772 4.442 11.982 11.243 11.982zm0-1.806c-5.622 0-9.161-4.341-9.161-10.176 0-5.905 3.54-10.177 9.16-10.177 5.552 0 9.161 4.272 9.161 10.177 0 5.835-3.609 10.176-9.16 10.176z" transform="translate(-271 -848) translate(271 848)"></path></g></g></g></svg>
